<svg width="17" height="17" viewBox="0 0 17 17" fill="none" xmlns="http://www.w3.org/2000/svg">
<g clip-path="url(#clip0_499_120)">
<path d="M8.79197 0.184082C7.02446 0.186023 5.32989 0.889025 4.08007 2.13885C2.83025 3.38867 2.12725 5.08323 2.12531 6.85075C2.12531 10.3721 7.72531 15.2061 8.36131 15.7461L8.79197 16.1101L9.22264 15.7461C9.85864 15.2061 15.4586 10.3721 15.4586 6.85075C15.4567 5.08323 14.7537 3.38867 13.5039 2.13885C12.2541 0.889025 10.5595 0.186023 8.79197 0.184082V0.184082ZM8.79197 10.1841C8.1327 10.1841 7.48824 9.98858 6.94007 9.62231C6.39191 9.25604 5.96467 8.73545 5.71237 8.12636C5.46008 7.51727 5.39407 6.84705 5.52269 6.20045C5.65131 5.55384 5.96877 4.9599 6.43495 4.49373C6.90112 4.02755 7.49507 3.71008 8.14167 3.58146C8.78827 3.45285 9.4585 3.51886 10.0676 3.77115C10.6767 4.02344 11.1973 4.45068 11.5635 4.99885C11.9298 5.54701 12.1253 6.19148 12.1253 6.85075C12.1242 7.73448 11.7727 8.58171 11.1478 9.2066C10.5229 9.83149 9.6757 10.183 8.79197 10.1841Z" fill="black"/>
<path d="M8.79199 8.85084C9.89656 8.85084 10.792 7.95541 10.792 6.85083C10.792 5.74626 9.89656 4.85083 8.79199 4.85083C7.68742 4.85083 6.79199 5.74626 6.79199 6.85083C6.79199 7.95541 7.68742 8.85084 8.79199 8.85084Z" fill="black"/>
</g>
<defs>
<clipPath id="clip0_499_120">
<rect width="16" height="16" fill="white" transform="translate(0.791992 0.184082)"/>
</clipPath>
</defs>
</svg>
