<svg width="20" height="17" viewBox="0 0 20 17" fill="none" xmlns="http://www.w3.org/2000/svg">
<path d="M0.336861 8.69972C0.336222 8.85579 0.366489 9.01044 0.42592 9.15476C0.48535 9.29907 0.572766 9.43019 0.683125 9.54055C0.793484 9.65091 0.924603 9.73832 1.06892 9.79775C1.21323 9.85718 1.36788 9.88745 1.52395 9.88681L15.3929 9.87845L10.7197 14.5516C10.498 14.7733 10.3735 15.074 10.3735 15.3876C10.3735 15.7011 10.498 16.0018 10.7197 16.2235C10.9414 16.4453 11.2422 16.5698 11.5557 16.5698C11.8693 16.5698 12.17 16.4453 12.3917 16.2235L19.0795 9.5357C19.3013 9.31398 19.4258 9.01327 19.4258 8.69972C19.4258 8.38617 19.3013 8.08545 19.0795 7.86374L12.3917 1.1759C12.17 0.954182 11.8693 0.829623 11.5557 0.829623C11.2422 0.829623 10.9414 0.954183 10.7197 1.1759C10.498 1.39761 10.3735 1.69833 10.3735 2.01188C10.3735 2.32543 10.498 2.62614 10.7197 2.84786L15.3929 7.52099L1.52395 7.51263C1.36788 7.51199 1.21323 7.54226 1.06892 7.60169C0.924602 7.66112 0.793484 7.74853 0.683125 7.85889C0.572765 7.96925 0.485349 8.10037 0.425919 8.24468C0.366488 8.389 0.336222 8.54365 0.336861 8.69972Z" fill="black"/>
</svg>
