<svg width="16" height="16" viewBox="0 0 16 16" fill="none" xmlns="http://www.w3.org/2000/svg">
<g clip-path="url(#clip0_499_103)">
<path d="M7.7 0.307129C6.17709 0.307129 4.68837 0.758688 3.42211 1.6047C2.15585 2.45072 1.16893 3.65319 0.586131 5.06006C0.0033363 6.46693 -0.149149 8.01501 0.147957 9.50854C0.445063 11.0021 1.17842 12.374 2.25528 13.4507C3.33215 14.5275 4.70415 15.2608 6.19781 15.5579C7.69146 15.855 9.23968 15.7025 10.6467 15.1197C12.0537 14.537 13.2562 13.5502 14.1023 12.284C14.9484 11.0178 15.4 9.52926 15.4 8.00647C15.3978 5.96516 14.5858 4.00808 13.1423 2.56465C11.6987 1.12122 9.74149 0.309337 7.7 0.307129V0.307129ZM7.7 14.4226C6.43091 14.4226 5.19031 14.0463 4.13509 13.3413C3.07988 12.6363 2.25744 11.6342 1.77178 10.4618C1.28611 9.28942 1.15904 7.99936 1.40663 6.75475C1.65422 5.51015 2.26535 4.3669 3.16273 3.46959C4.06012 2.57228 5.20346 1.9612 6.44817 1.71364C7.69289 1.46607 8.98306 1.59313 10.1556 2.07875C11.328 2.56437 12.3302 3.38674 13.0353 4.44187C13.7403 5.49699 14.1167 6.73748 14.1167 8.00647C14.1148 9.70756 13.4382 11.3384 12.2352 12.5413C11.0323 13.7441 9.40124 14.4207 7.7 14.4226Z" fill="black"/>
<path d="M7.69999 4.15674C7.52981 4.15674 7.3666 4.22434 7.24626 4.34466C7.12593 4.46499 7.05832 4.62818 7.05832 4.79835V7.57332L4.89527 8.9284C4.75062 9.01876 4.64778 9.16288 4.6094 9.32905C4.57101 9.49522 4.60021 9.66983 4.69058 9.81447C4.78094 9.95911 4.92507 10.0619 5.09125 10.1003C5.25744 10.1387 5.43206 10.1095 5.57672 10.0191L8.04071 8.47928C8.13381 8.42095 8.21037 8.3397 8.26306 8.24331C8.31576 8.14692 8.34282 8.03862 8.34165 7.92877V4.79835C8.34165 4.62818 8.27405 4.46499 8.15371 4.34466C8.03338 4.22434 7.87017 4.15674 7.69999 4.15674Z" fill="black"/>
</g>
<defs>
<clipPath id="clip0_499_103">
<rect width="15.4" height="15.3987" fill="white" transform="translate(0 0.307129)"/>
</clipPath>
</defs>
</svg>
