<svg width="16" height="16" viewBox="0 0 16 16" fill="none" xmlns="http://www.w3.org/2000/svg">
<g clip-path="url(#clip0_499_107)">
<path d="M15.9706 3.86255L10.569 9.26409C9.96674 9.86486 9.15078 10.2022 8.30009 10.2022C7.44941 10.2022 6.63345 9.86486 6.03116 9.26409L0.629614 3.86255C0.620631 3.96393 0.600098 4.05569 0.600098 4.15643V11.8564C0.601117 12.707 0.939463 13.5225 1.54092 14.1239C2.14238 14.7254 2.95784 15.0637 3.80843 15.0648H12.7918C13.6423 15.0637 14.4578 14.7254 15.0593 14.1239C15.6607 13.5225 15.9991 12.707 16.0001 11.8564V4.15643C16.0001 4.05569 15.9796 3.96393 15.9706 3.86255Z" fill="black"/>
<path d="M9.6617 8.35669L15.5227 2.49506C15.2388 2.02428 14.8383 1.63461 14.36 1.36363C13.8816 1.09264 13.3415 0.9495 12.7918 0.947998H3.80842C3.25865 0.9495 2.71855 1.09264 2.2402 1.36363C1.76186 1.63461 1.36141 2.02428 1.07748 2.49506L6.93847 8.35669C7.3001 8.71686 7.7897 8.91909 8.30009 8.91909C8.81048 8.91909 9.30008 8.71686 9.6617 8.35669Z" fill="black"/>
</g>
<defs>
<clipPath id="clip0_499_107">
<rect width="15.4" height="15.4" fill="white" transform="translate(0.600098 0.306396)"/>
</clipPath>
</defs>
</svg>
