<svg width="24" height="16" viewBox="0 0 24 16" fill="none" xmlns="http://www.w3.org/2000/svg">
<path d="M1.71407 0.904297C1.62574 0.904297 1.53955 0.918809 1.45738 0.938523L11.6226 10.0427C11.8556 10.2513 12.382 10.2513 12.6151 10.0427L22.7803 0.938523C22.6981 0.918809 22.6119 0.904297 22.5236 0.904297H1.71407ZM0.661605 1.70861C0.636414 1.80121 0.618835 1.89869 0.618835 1.99953V14.5948C0.618835 14.6927 0.637728 14.7869 0.661605 14.8771L7.97747 8.25439L0.661605 1.70861ZM23.5761 1.70861L16.2602 8.25439L23.5761 14.8771C23.5999 14.7869 23.6188 14.6927 23.6188 14.5948V1.99953C23.6188 1.89869 23.6013 1.80121 23.5761 1.70861ZM8.79889 8.99022L1.44881 15.6473C1.53418 15.6683 1.62196 15.69 1.71407 15.69H22.5236C22.6157 15.69 22.7035 15.6684 22.7889 15.6473L15.4388 8.99022L13.351 10.8556C12.6545 11.479 11.5831 11.479 10.8867 10.8556L8.79889 8.99022Z" fill="black"/>
</svg>
