<svg width="17" height="17" viewBox="0 0 17 17" fill="none" xmlns="http://www.w3.org/2000/svg">
<path d="M14.4888 10.0874C14.1038 9.72111 13.5926 9.51719 13.0613 9.51793C12.53 9.51868 12.0193 9.72404 11.6354 10.0914L10.3648 11.162C9.3276 10.7328 8.38544 10.103 7.59238 9.30867C6.79931 8.51435 6.17097 7.5712 5.74342 6.53337L6.81008 5.2667C7.17644 4.88203 7.38112 4.37138 7.38186 3.84016C7.38261 3.30895 7.17936 2.79773 6.81408 2.41203C6.81408 2.41203 5.57942 0.810034 5.55875 0.789368C5.17838 0.406533 4.66267 0.188716 4.12303 0.182978C3.5834 0.177239 3.06317 0.384041 2.67475 0.758701L1.90808 1.42537C-3.23792 6.8987 10.0414 20.184 15.5081 14.9587L16.1161 14.2587C16.5022 13.8713 16.7191 13.3467 16.7191 12.7997C16.7191 12.2527 16.5022 11.7281 16.1161 11.3407C16.0941 11.3227 14.4888 10.0874 14.4888 10.0874Z" fill="black"/>
</svg>
